<svg version="1.1" id="Layer_1" xmlns="http://www.w3.org/2000/svg" xmlns:xlink="http://www.w3.org/1999/xlink" x="0px" y="0px"
	 viewBox="0 0 305 41" style="enable-background:new 0 0 305 41;" xml:space="preserve">
<style type="text/css">
	.st0{fill:#FFFFFF;}
</style>
<g>
	<path class="st0" d="M29.3,32.6c-2.1,0.7-6.1,1.8-10.4,1.8c-5.5,0-9.6-1.4-12.7-4.3c-2.9-2.8-4.6-7-4.5-11.9
		C1.7,7.9,9,1.4,19.7,1.4c4,0,7.1,0.8,8.6,1.5L27,7.7c-1.8-0.8-3.9-1.4-7.4-1.4c-6.9,0-11.8,4.1-11.8,11.6c0,7.4,4.5,11.7,11.2,11.7
		c2.1,0,3.7-0.3,4.5-0.6v-8.1h-5.7v-4.6h11.4V32.6z"/>
	<path class="st0" d="M45.6,19.3v4.1H33.4v-4.1H45.6z"/>
	<path class="st0" d="M56.7,24.9L54,34.1h-6.1L58.2,1.7h7.5l10.5,32.4h-6.3L67,24.9H56.7z M66,20.5l-2.5-8c-0.6-2-1.2-4.2-1.6-6.1
		h-0.1c-0.5,1.9-1,4.1-1.5,6.1l-2.5,8H66z"/>
	<path class="st0" d="M94.2,34.1L86.3,1.7h6.3l3.1,14.7c0.8,3.9,1.6,8.1,2.1,11.3h0.1c0.5-3.4,1.4-7.2,2.3-11.3l3.5-14.6h6.2
		l3.2,14.9c0.8,3.8,1.5,7.4,2,10.9h0.1c0.6-3.6,1.3-7.3,2.2-11.2l3.4-14.6h6l-8.7,32.4h-6.3l-3.3-15.2c-0.8-3.7-1.4-6.7-1.8-10.2
		h-0.1c-0.5,3.5-1.2,6.6-2.1,10.2l-3.8,15.2H94.2z"/>
	<path class="st0" d="M135.7,4.2c0,1.8-1.3,3.2-3.4,3.2c-2,0-3.2-1.4-3.2-3.2c0-1.8,1.3-3.2,3.3-3.2C134.4,1,135.7,2.4,135.7,4.2z
		 M129.4,34.1V10.7h5.9v23.4H129.4z"/>
	<path class="st0" d="M141.7,18.2c0-3.1-0.1-5.4-0.2-7.5h5.1l0.2,4.4h0.2c1.2-3.3,3.9-5,6.4-5c0.6,0,0.9,0,1.4,0.1v5.6
		c-0.5-0.1-1-0.2-1.7-0.2c-2.8,0-4.8,1.8-5.3,4.5c-0.1,0.5-0.2,1.1-0.2,1.8v12.1h-5.9V18.2z"/>
	<path class="st0" d="M162.5,24c0.2,4.2,3.4,6.1,7.2,6.1c2.7,0,4.7-0.4,6.4-1.1l0.9,4.1c-2,0.8-4.8,1.5-8.2,1.5
		c-7.6,0-12-4.7-12-11.8c0-6.4,3.9-12.6,11.4-12.6c7.6,0,10.1,6.2,10.1,11.4c0,1.1-0.1,2-0.2,2.5H162.5z M172.8,19.9
		c0-2.2-0.9-5.7-4.9-5.7c-3.6,0-5.2,3.3-5.4,5.7H172.8z"/>
	<path class="st0" d="M183.8,34.1v-19h-3.2v-4.4h3.2v-1c0-3,0.8-6.1,2.8-8c1.7-1.6,4.1-2.3,6.1-2.3c1.6,0,2.8,0.3,3.8,0.6l-0.4,4.5
		c-0.6-0.2-1.4-0.4-2.5-0.4c-2.9,0-3.9,2.5-3.9,5.3v1.2h5.1v4.4h-5.1v19H183.8z"/>
	<path class="st0" d="M198.4,18.2c0-3.1-0.1-5.4-0.2-7.5h5.1l0.2,4.4h0.2c1.2-3.3,3.9-5,6.4-5c0.6,0,0.9,0,1.4,0.1v5.6
		c-0.5-0.1-1-0.2-1.7-0.2c-2.8,0-4.8,1.8-5.3,4.5c-0.1,0.5-0.2,1.1-0.2,1.8v12.1h-5.9V18.2z"/>
	<path class="st0" d="M228.2,34.1l-0.4-2.6h-0.1c-1.4,1.8-3.9,3.1-6.9,3.1c-4.7,0-7.4-3.4-7.4-7c0-5.9,5.3-8.9,13.9-8.8v-0.4
		c0-1.5-0.6-4.1-4.7-4.1c-2.3,0-4.7,0.7-6.3,1.7l-1.2-3.8c1.8-1.1,4.8-2.1,8.5-2.1c7.5,0,9.6,4.7,9.6,9.9v8.4c0,2.1,0.1,4.2,0.4,5.6
		H228.2z M227.5,22.6c-4.2-0.1-8.2,0.8-8.2,4.4c0,2.3,1.5,3.4,3.4,3.4c2.4,0,4.1-1.5,4.6-3.2c0.1-0.4,0.2-0.9,0.2-1.3V22.6z"/>
	<path class="st0" d="M239.5,17.7c0-2.7-0.1-4.9-0.2-6.9h5l0.3,3.4h0.1c1.1-1.8,3.3-4,7.2-4c3.1,0,5.5,1.7,6.5,4.3h0.1
		c0.8-1.3,1.8-2.3,2.9-2.9c1.3-0.9,2.8-1.4,4.8-1.4c3.9,0,7.8,2.6,7.8,10.1v13.8h-5.8V21.2c0-3.9-1.3-6.2-4.2-6.2
		c-2,0-3.5,1.4-4.1,3.1c-0.2,0.6-0.3,1.3-0.3,2v14h-5.8V20.6c0-3.3-1.3-5.6-4-5.6c-2.2,0-3.7,1.7-4.3,3.3c-0.2,0.6-0.3,1.3-0.3,2
		v13.8h-5.8V17.7z"/>
	<path class="st0" d="M284.3,24c0.2,4.2,3.4,6.1,7.2,6.1c2.7,0,4.7-0.4,6.5-1.1l0.9,4.1c-2,0.8-4.8,1.5-8.2,1.5
		c-7.6,0-12-4.7-12-11.8c0-6.4,3.9-12.6,11.4-12.6c7.6,0,10.1,6.2,10.1,11.4c0,1.1-0.1,2-0.2,2.5H284.3z M294.6,19.9
		c0-2.2-0.9-5.7-4.9-5.7c-3.6,0-5.2,3.3-5.4,5.7H294.6z"/>
</g>
</svg>
